<svg baseProfile="tiny" xmlns="http://www.w3.org/2000/svg" width="266.187" height="400.475" viewBox="0 0 266.187 400.475"><path fill="none" stroke="#000" d="M226.074 22.66v23.486c-10.526-.584-23.976.585-38.595 2.925-81.286 12.865-123.39 71.344-132.162 134.5h1.17c18.127-24.56 50.29-44.443 92.395-44.443 67.25 0 114.617 49.122 114.617 122.805 0 70.175-47.368 134.5-126.898 134.5-80.7 0-133.915-63.156-133.915-161.985 0-74.852 26.315-133.914 64.326-171.34C98.59 32.11 140.695 12.814 188.648 6.966c15.204-2.34 28.07-2.924 37.426-2.924V22.66m-88.206 337.23c44.762 0 75.2-37.6 75.2-93.105 0-55.506-31.63-88.93-79.975-88.93-31.632 0-61.474 19.1-75.797 47.748-2.984 5.97-5.372 13.13-5.372 22.68.597 63.86 30.438 111.607 85.347 111.607h.598z"/></svg>