<?xml version="1.0" encoding="utf-8"?>
<!-- Generator: Adobe Illustrator 16.0.0, SVG Export Plug-In . SVG Version: 6.00 Build 0)  -->
<!DOCTYPE svg PUBLIC "-//W3C//DTD SVG 1.1 Tiny//EN" "http://www.w3.org/Graphics/SVG/1.1/DTD/svg11-tiny.dtd">
<svg version="1.1" baseProfile="tiny" id="Layer_1" xmlns="http://www.w3.org/2000/svg" xmlns:xlink="http://www.w3.org/1999/xlink"
	 x="0px" y="0px" width="266.187px" height="400.475px" viewBox="0 0 266.187 400.475" xml:space="preserve">
<g>
	<path fill="none" stroke="#000000" d="M226.074,22.659v23.487c-10.526-0.584-23.976,0.585-38.595,2.925
		c-81.285,12.864-123.39,71.343-132.161,134.5h1.169c18.128-24.562,50.291-44.444,92.396-44.444
		c67.25,0,114.617,49.122,114.617,122.805c0,70.175-47.368,134.5-126.898,134.5c-80.7,0-133.915-63.156-133.915-161.985
		c0-74.852,26.315-133.914,64.326-171.341c31.578-30.994,73.682-50.291,121.635-56.139c15.204-2.34,28.07-2.924,37.426-2.924V22.659
		 M137.868,359.89c44.762,0,75.201-37.601,75.201-93.105c0-55.506-31.632-88.929-79.976-88.929
		c-31.632,0-61.474,19.099-75.797,47.747c-2.984,5.969-5.372,13.13-5.372,22.68c0.597,63.861,30.438,111.607,85.347,111.607H137.868
		z"/>
</g>
</svg>
